<svg width="44" height="40" viewBox="0 0 44 40" fill="none" xmlns="http://www.w3.org/2000/svg">
<path d="M42.8 18.31L32.8334 10.2933V4.83333C32.8864 3.73904 32.5034 2.66836 31.7682 1.85604C31.0331 1.04373 30.0058 0.556075 28.9117 0.5H4.21168C3.12525 0.567079 2.10898 1.0595 1.38305 1.8706C0.657125 2.68169 0.279989 3.74614 0.333349 4.83333V26.5C0.31324 27.3604 0.549787 28.2073 1.01284 28.9327C1.47589 29.6582 2.14447 30.2293 2.93335 30.5733C2.53432 31.5495 2.37881 32.6081 2.48023 33.6578C2.58164 34.7075 2.93694 35.7168 3.51547 36.5985C4.094 37.4803 4.87838 38.208 5.80093 38.7189C6.72348 39.2299 7.7565 39.5087 8.81085 39.5313C9.86519 39.5538 10.9092 39.3196 11.8528 38.8486C12.7964 38.3777 13.6112 37.6842 14.227 36.8281C14.8428 35.9719 15.241 34.9788 15.3873 33.9344C15.5335 32.89 15.4235 31.8257 15.0667 30.8333H28.8467C28.4903 31.8151 28.3758 32.8683 28.5129 33.9037C28.6499 34.9392 29.0344 35.9263 29.6339 36.7816C30.2333 37.6369 31.0301 38.3351 31.9566 38.8172C32.8832 39.2993 33.9122 39.551 34.9567 39.551C36.0011 39.551 37.0302 39.2993 37.9568 38.8172C38.8833 38.3351 39.68 37.6369 40.2795 36.7816C40.879 35.9263 41.2635 34.9392 41.4005 33.9037C41.5375 32.8683 41.423 31.8151 41.0667 30.8333H41.5C42.0747 30.8333 42.6258 30.6051 43.0321 30.1987C43.4384 29.7924 43.6667 29.2413 43.6667 28.6667V20C43.6601 19.671 43.5786 19.3478 43.4284 19.055C43.2782 18.7622 43.0633 18.5074 42.8 18.31V18.31ZM39.3334 21.04V26.5H32.8334V15.84L39.3334 21.04ZM11.1667 33C11.1667 33.4285 11.0396 33.8474 10.8015 34.2037C10.5635 34.56 10.2251 34.8378 9.82916 35.0017C9.43326 35.1657 8.99761 35.2086 8.57732 35.125C8.15703 35.0414 7.77097 34.8351 7.46795 34.5321C7.16494 34.2291 6.95858 33.843 6.87498 33.4227C6.79138 33.0024 6.83429 32.5668 6.99828 32.1709C7.16227 31.7749 7.43997 31.4366 7.79628 31.1985C8.15259 30.9604 8.57149 30.8333 9.00002 30.8333C9.57465 30.8333 10.1258 31.0616 10.5321 31.4679C10.9384 31.8743 11.1667 32.4254 11.1667 33ZM37.1667 33C37.1667 33.4285 37.0396 33.8474 36.8015 34.2037C36.5635 34.56 36.2251 34.8378 35.8292 35.0017C35.4333 35.1657 34.9976 35.2086 34.5773 35.125C34.157 35.0414 33.771 34.8351 33.468 34.5321C33.1649 34.2291 32.9586 33.843 32.875 33.4227C32.7914 33.0024 32.8343 32.5668 32.9983 32.1709C33.1623 31.7749 33.44 31.4366 33.7963 31.1985C34.1526 30.9604 34.5715 30.8333 35 30.8333C35.5747 30.8333 36.1258 31.0616 36.5321 31.4679C36.9384 31.8743 37.1667 32.4254 37.1667 33Z" fill="#FF2D00"/>
</svg>
