<svg width="50" height="52" viewBox="0 0 50 52" fill="none" xmlns="http://www.w3.org/2000/svg">
<path d="M26.361 0.294531C25.9344 0.101563 25.4774 0 25 0C24.5227 0 24.0657 0.101563 23.6391 0.294531L4.51489 8.40938C2.28051 9.35391 0.61489 11.5578 0.625046 14.2188C0.675827 24.2937 4.81958 42.7273 22.3188 51.1063C24.0149 51.9188 25.9852 51.9188 27.6813 51.1063C45.1805 42.7273 49.3243 24.2937 49.375 14.2188C49.3852 11.5578 47.7196 9.35391 45.4852 8.40938L26.361 0.294531ZM15.3415 29.0672C15.829 29.1891 16.3469 29.25 16.875 29.25C20.4602 29.25 23.375 26.3352 23.375 22.75V16.25H27.8641C29.093 16.25 30.2204 16.9406 30.7688 18.0477L31.5 19.5H38C38.8938 19.5 39.625 20.2312 39.625 21.125V24.375C39.625 28.8641 35.9891 32.5 31.5 32.5H26.625V37.6492C26.625 38.3906 26.0258 39 25.2743 39C25.0915 39 24.9086 38.9594 24.7461 38.8883L14.7219 34.5922C14.0516 34.3078 13.625 33.6477 13.625 32.9266C13.625 32.6422 13.686 32.368 13.818 32.1141L15.3415 29.0672ZM15.25 16.25H20.125V22.75C20.125 24.5477 18.6727 26 16.875 26C15.0774 26 13.625 24.5477 13.625 22.75V17.875C13.625 16.9812 14.3563 16.25 15.25 16.25ZM28.25 21.125C28.25 20.2312 27.5188 19.5 26.625 19.5C25.7313 19.5 25 20.2312 25 21.125C25 22.0188 25.7313 22.75 26.625 22.75C27.5188 22.75 28.25 22.0188 28.25 21.125Z" fill="#FF2D00"/>
</svg>
