<svg width="52" height="52" viewBox="0 0 52 52" fill="none" xmlns="http://www.w3.org/2000/svg">
<g clip-path="url(#clip0_7_53)">
<path fill-rule="evenodd" clip-rule="evenodd" d="M36.2575 20.3485C36.2575 22.7595 35.2997 25.0718 33.5948 26.7767C31.89 28.4816 29.5777 29.4394 27.1666 29.4394C24.7555 29.4394 22.4432 28.4816 20.7383 26.7767C19.0335 25.0718 18.0757 22.7595 18.0757 20.3485C18.0757 17.9374 19.0335 15.6251 20.7383 13.9202C22.4432 12.2154 24.7555 11.2576 27.1666 11.2576C29.5777 11.2576 31.89 12.2154 33.5948 13.9202C35.2997 15.6251 36.2575 17.9374 36.2575 20.3485ZM31.712 20.3485C31.712 21.554 31.2332 22.7102 30.3807 23.5626C29.5283 24.415 28.3721 24.8939 27.1666 24.8939C25.9611 24.8939 24.8049 24.415 23.9525 23.5626C23.1 22.7102 22.6211 21.554 22.6211 20.3485C22.6211 19.1429 23.1 17.9868 23.9525 17.1344C24.8049 16.2819 25.9611 15.803 27.1666 15.803C28.3721 15.803 29.5283 16.2819 30.3807 17.1344C31.2332 17.9868 31.712 19.1429 31.712 20.3485Z" fill="#EE7156"/>
<path fill-rule="evenodd" clip-rule="evenodd" d="M27.1666 2.16666C13.3598 2.16666 2.16663 13.3598 2.16663 27.1667C2.16663 40.9735 13.3598 52.1667 27.1666 52.1667C40.9734 52.1667 52.1666 40.9735 52.1666 27.1667C52.1666 13.3598 40.9734 2.16666 27.1666 2.16666ZM6.71208 27.1667C6.71208 31.9167 8.33253 36.2894 11.0484 39.7621C12.9558 37.2573 15.4164 35.2274 18.2381 33.831C21.0597 32.4346 24.166 31.7094 27.3144 31.7121C30.4219 31.7092 33.4892 32.4156 36.2824 33.7775C39.0756 35.1395 41.5211 37.121 43.4325 39.5712C45.4017 36.9885 46.7276 33.974 47.3005 30.7771C47.8733 27.5802 47.6767 24.2929 46.7268 21.1871C45.777 18.0813 44.1012 15.2463 41.8382 12.9167C39.5752 10.5872 36.7899 8.82997 33.7129 7.79054C30.636 6.75111 27.3557 6.45932 24.1436 6.93932C20.9314 7.41933 17.8798 8.65732 15.2411 10.5509C12.6024 12.4444 10.4526 14.9391 8.96942 17.8285C7.48628 20.7178 6.71249 23.9189 6.71208 27.1667ZM27.1666 47.6212C22.4711 47.6283 17.9172 46.0129 14.2757 43.0485C15.7415 40.9501 17.6924 39.2369 19.9625 38.0546C22.2326 36.8722 24.7548 36.2557 27.3144 36.2576C29.842 36.2555 32.3336 36.8566 34.5824 38.0108C36.8311 39.165 38.772 40.8391 40.2439 42.8939C36.5741 45.9546 31.9452 47.6279 27.1666 47.6212Z" fill="#EE7156"/>
</g>
<defs>
<clipPath id="clip0_7_53">
<rect width="52" height="52" fill="white"/>
</clipPath>
</defs>
</svg>
