<svg width="59" height="40" viewBox="0 0 59 40" fill="none" xmlns="http://www.w3.org/2000/svg">
<path d="M6.5 0.5C2.91484 0.5 0 3.41484 0 7V33C0 36.5852 2.91484 39.5 6.5 39.5H52C55.5852 39.5 58.5 36.5852 58.5 33V7C58.5 3.41484 55.5852 0.5 52 0.5H6.5ZM27.625 13.5H50.375C51.2688 13.5 52 14.2312 52 15.125C52 16.0188 51.2688 16.75 50.375 16.75H27.625C26.7312 16.75 26 16.0188 26 15.125C26 14.2312 26.7312 13.5 27.625 13.5ZM26 24.875C26 23.9812 26.7312 23.25 27.625 23.25H50.375C51.2688 23.25 52 23.9812 52 24.875C52 25.7688 51.2688 26.5 50.375 26.5H27.625C26.7312 26.5 26 25.7688 26 24.875ZM16.6664 10.25V10.8898C17.3367 11.0117 18.3523 11.2148 18.7992 11.3367C19.8859 11.6211 20.5258 12.7383 20.2414 13.825C19.957 14.9117 18.8398 15.5516 17.7531 15.2672C17.3672 15.1656 15.9859 14.8914 15.5492 14.8305C14.3102 14.6375 13.2945 14.8 12.6445 15.0945C12.0047 15.3891 11.8422 15.7242 11.8117 15.9172C11.7508 16.2625 11.8117 16.3945 11.8219 16.425C11.8523 16.4758 11.9234 16.6078 12.1875 16.7805C12.807 17.207 13.782 17.5117 15.2242 17.9383L15.3055 17.9586C16.5344 18.3344 18.1797 18.8219 19.4086 19.7258C20.0891 20.2234 20.7289 20.8836 21.125 21.8078C21.5312 22.732 21.6125 23.7477 21.4297 24.7938C21.0945 26.7234 19.8148 28.0437 18.2203 28.7242C17.7227 28.9375 17.2047 29.0898 16.6562 29.1914V29.75C16.6562 30.8773 15.7422 31.7914 14.6148 31.7914C13.4875 31.7914 12.5734 30.8773 12.5734 29.75V29.1C11.6086 28.8766 10.3492 28.45 9.54688 28.1758C9.37422 28.1148 9.22187 28.0641 9.1 28.0234C8.03359 27.668 7.46484 26.5203 7.81016 25.4539C8.15547 24.3875 9.31328 23.8187 10.3797 24.1641C10.5828 24.2352 10.7961 24.3063 11.0297 24.3773C11.9945 24.7023 13.0813 25.0781 13.6906 25.1797C14.9906 25.3828 15.9961 25.2508 16.6156 24.9867C17.1742 24.7531 17.3672 24.4484 17.4281 24.093C17.4992 23.6867 17.4383 23.4938 17.4078 23.4125C17.3672 23.3211 17.2758 23.1891 17.032 23.0063C16.4328 22.5695 15.4781 22.2445 14.0562 21.818L13.8328 21.7469C12.6445 21.3914 11.0906 20.9242 9.9125 20.1219C9.24219 19.6648 8.57188 19.0352 8.15547 18.1414C7.72891 17.2273 7.62734 16.232 7.81016 15.1961C8.13516 13.3375 9.45547 12.0578 10.9688 11.3672C11.4766 11.1336 12.0148 10.9609 12.5836 10.8492V10.2398C12.5836 9.1125 13.4977 8.19844 14.625 8.19844C15.7523 8.19844 16.6664 9.1125 16.6664 10.2398V10.25Z" fill="#FF2D00"/>
</svg>
